<svg width="36" height="20" viewBox="0 0 36 20" fill="none" xmlns="http://www.w3.org/2000/svg">
<path d="M16.955 15.086C16.955 16.238 16.64 17.174 16.01 17.894C15.398 18.614 14.57 19.145 13.526 19.487C12.482 19.829 11.33 20 10.07 20H0.647V0.829999H11.771C12.671 0.829999 13.445 1.073 14.093 1.559C14.759 2.027 15.263 2.639 15.605 3.395C15.965 4.151 16.145 4.934 16.145 5.744C16.145 6.626 15.911 7.481 15.443 8.309C14.993 9.137 14.309 9.758 13.391 10.172C14.489 10.496 15.353 11.063 15.983 11.873C16.631 12.683 16.955 13.754 16.955 15.086ZM5.912 5.312V8.255H9.503C9.863 8.255 10.187 8.156 10.475 7.958C10.781 7.76 10.934 7.364 10.934 6.77C10.934 6.248 10.808 5.879 10.556 5.663C10.304 5.429 10.007 5.312 9.665 5.312H5.912ZM11.609 14.006C11.609 13.538 11.483 13.151 11.231 12.845C10.979 12.521 10.655 12.359 10.259 12.359H5.912V15.572H10.07C10.502 15.572 10.862 15.437 11.15 15.167C11.456 14.897 11.609 14.51 11.609 14.006Z" fill="#00B6C1"/>
<path d="M19.2886 20V0.829999H28.0906C29.0266 0.829999 29.8906 1.019 30.6826 1.397C31.4746 1.775 32.1586 2.288 32.7346 2.936C33.3106 3.566 33.7516 4.277 34.0576 5.069C34.3816 5.861 34.5436 6.662 34.5436 7.472C34.5436 8.57 34.3006 9.605 33.8146 10.577C33.3286 11.549 32.6536 12.341 31.7896 12.953L35.8396 20H30.0616L26.6866 14.114H24.5536V20H19.2886ZM24.5536 9.524H27.8746C28.1986 9.524 28.4956 9.344 28.7656 8.984C29.0536 8.624 29.1976 8.12 29.1976 7.472C29.1976 6.806 29.0356 6.302 28.7116 5.96C28.3876 5.6 28.0636 5.42 27.7396 5.42H24.5536V9.524Z" fill="#FFC700"/>
</svg>
